<mxfile host="app.diagrams.net" modified="2024-01-16T23:47:32.558Z" agent="Mozilla/5.0 (iPhone; CPU iPhone OS 17_2_1 like Mac OS X) AppleWebKit/605.1.15 (KHTML, like Gecko) Version/17.2 Mobile/15E148 Safari/604.1" version="22.1.20" etag="-LkDULgIhRo27i7yPgSY" type="github">
  <diagram name="페이지-1" id="xsubM5WJPmyUGH7HRkIZ">
    <mxGraphModel>
      <root>
        <mxCell id="0" />
        <mxCell id="1" parent="0" />
      </root>
    </mxGraphModel>
  </diagram>
</mxfile>
